HIERARCHY
ROOT Hips
{
	OFFSET 0.000000 0.000000 0.000000
	CHANNELS 6 Xposition Yposition Zposition Zrotation Yrotation Xrotation 
	JOINT LowerBack
	{
		OFFSET 0.000000 0.000000 0.000000
		CHANNELS 3 Zrotation Yrotation Xrotation
		JOINT Spine
		{
			OFFSET 0.028270 2.035590 -0.193380
			CHANNELS 3 Zrotation Yrotation Xrotation
			JOINT Spine1
			{
				OFFSET 0.056720 2.048850 -0.042750
				CHANNELS 3 Zrotation Yrotation Xrotation
				JOINT Neck
				{
					OFFSET 0.000000 0.000000 0.000000
					CHANNELS 3 Zrotation Yrotation Xrotation
					JOINT Neck1
					{
						OFFSET -0.054170 1.746240 0.172020
						CHANNELS 3 Zrotation Yrotation Xrotation
						JOINT Head
						{
							OFFSET 0.104070 1.761360 -0.123970
							CHANNELS 3 Zrotation Yrotation Xrotation
							End Site
							{
								OFFSET 0.000000 0.000000 0.000000
							}
						}
					}
				}
				JOINT LeftShoulder
				{
					OFFSET 0.000000 0.000000 0.000000
					CHANNELS 3 Zrotation Yrotation Xrotation
					JOINT LeftArm
					{
						OFFSET 3.362410 1.200890 -0.311210
						CHANNELS 3 Zrotation Yrotation Xrotation
						JOINT LeftForeArm
						{
							OFFSET 4.983000 -0.000000 -0.000000
							CHANNELS 3 Zrotation Yrotation Xrotation
							JOINT LeftHand
							{
								OFFSET 3.483560 -0.000000 -0.000000
								CHANNELS 3 Zrotation Yrotation Xrotation
								JOINT LeftFingerBase
								{
									OFFSET 0.000000 0.000000 0.000000
									CHANNELS 3 Zrotation Yrotation Xrotation
									JOINT LeftHandIndex1
									{
										OFFSET 0.715260 -0.000000 -0.000000
										CHANNELS 3 Zrotation Yrotation Xrotation
										End Site
										{
											OFFSET 0.000000 0.000000 0.000000
										}
									}
								}
								JOINT LThumb
								{
									OFFSET 0.000000 0.000000 0.000000
									CHANNELS 3 Zrotation Yrotation Xrotation
									End Site
									{
										OFFSET 0.000000 0.000000 0.000000
									}
								}
							}
						}
					}
				}
				JOINT RightShoulder
				{
					OFFSET 0.000000 0.000000 0.000000
					CHANNELS 3 Zrotation Yrotation Xrotation
					JOINT RightArm
					{
						OFFSET -3.136600 1.374050 -0.404650
						CHANNELS 3 Zrotation Yrotation Xrotation
						JOINT RightForeArm
						{
							OFFSET -5.241900 -0.000000 -0.000000
							CHANNELS 3 Zrotation Yrotation Xrotation
							JOINT RightHand
							{
								OFFSET -3.444170 -0.000000 -0.000000
								CHANNELS 3 Zrotation Yrotation Xrotation
								JOINT RightFingerBase
								{
									OFFSET 0.000000 0.000000 0.000000
									CHANNELS 3 Zrotation Yrotation Xrotation
									JOINT RightHandIndex1
									{
										OFFSET -0.622530 -0.000000 -0.000000
										CHANNELS 3 Zrotation Yrotation Xrotation
										End Site
										{
											OFFSET 0.000000 0.000000 0.000000
										}
									}
								}
								JOINT RThumb
								{
									OFFSET 0.000000 0.000000 0.000000
									CHANNELS 3 Zrotation Yrotation Xrotation
									End Site
									{
										OFFSET 0.000000 0.000000 0.000000
									}
								}
							}
						}
					}
				}
			}
		}
	}
}
}
MOTION
Frames: 6
Frame Time: 0.008333
4.066796 15.935111 0.173917 -51.767266 83.652237 -28.353166 -0.249007 -1.401248 9.466361 -0.737369 -1.148250 -0.979048 -5.804179 -1.096531 0.012697 7.546709 -7.498951 -6.715619 -2.711706 -0.189197 -0.102367 0.000000 0.000000 0.000000 4.824298 7.256956 0.827761 -67.529822 -8.453375 3.516183 -0.358637 -80.459893 -0.019410 2.507947 7.053662 0.155294 -0.086986 0.241829 0.000000 0.000000 0.000000 0.000000 0.000000 0.000000 0.000000 9.269385 -3.826508 2.205214 73.488592 -4.599525 6.922691 2.042609 42.956382 0.002920 -0.739605 2.743336 -0.019864 0.074176 -0.131892 -0.000000 0.000000 0.000000 0.000000 0.000000 0.000000 0.000000 
4.203437 15.966951 0.181753 -52.074762 83.648676 -28.417643 0.030792 -1.510115 9.400499 -0.672957 -1.265787 -0.974513 -5.789423 -1.212019 0.063518 7.535727 -7.741750 -6.769482 -2.717724 -0.189236 -0.116174 0.000000 0.000000 0.000000 5.072086 7.207974 0.747637 -66.850579 -9.072319 3.450438 -0.275065 -82.053839 -0.018541 2.307673 7.041316 0.142691 -0.084004 0.250510 0.000000 0.000000 0.000000 0.000000 0.000000 0.000000 0.000000 9.270874 -4.148157 2.276273 73.189682 -5.319873 6.520795 2.073169 42.548942 0.002882 -0.767576 2.656510 -0.019968 0.076002 -0.127318 -0.000000 0.000000 0.000000 0.000000 0.000000 0.000000 0.000000 
4.340815 15.998002 0.190419 -52.334328 83.643153 -28.417174 0.316123 -1.614613 9.324974 -0.607587 -1.379751 -0.971601 -5.773930 -1.324289 0.117275 7.525564 -8.006817 -6.837331 -2.721172 -0.188934 -0.133842 0.000000 0.000000 0.000000 5.313023 7.180201 0.672992 -66.144765 -9.666163 3.332356 -0.192779 -83.608692 -0.017849 2.146579 7.039950 0.132885 -0.081457 0.258864 0.000000 0.000000 0.000000 0.000000 0.000000 0.000000 0.000000 9.264776 -4.485926 2.341681 72.877784 -6.032148 6.118216 2.098972 42.253880 0.002856 -0.795383 2.588768 -0.020170 0.077692 -0.123361 -0.000000 0.000000 0.000000 0.000000 0.000000 0.000000 0.000000 
4.479094 16.028028 0.200076 -52.549939 83.641490 -28.359241 0.603539 -1.715809 9.241293 -0.541805 -1.491139 -0.970339 -5.757219 -1.434375 0.172609 7.517162 -8.290851 -6.917477 -2.721817 -0.188293 -0.154898 0.000000 0.000000 0.000000 5.551271 7.167522 0.603840 -65.419087 -10.225673 3.158741 -0.112402 -85.120011 -0.017331 2.021400 7.049530 0.125279 -0.079305 0.266860 0.000000 0.000000 0.000000 0.000000 0.000000 0.000000 0.000000 9.251064 -4.836649 2.401713 72.558613 -6.740517 5.709971 2.120510 42.071463 0.002873 -0.807947 2.541249 -0.020072 0.079128 -0.119980 -0.000000 0.000000 0.000000 0.000000 0.000000 0.000000 0.000000 
4.618380 16.056781 0.210894 -52.721271 83.649597 -28.246408 0.888537 -1.814958 9.150951 -0.476336 -1.601103 -0.970414 -5.738750 -1.543412 0.229418 7.511393 -8.594969 -7.009709 -2.719116 -0.187271 -0.179293 0.000000 0.000000 0.000000 5.789342 7.167029 0.539857 -64.679532 -10.745329 2.929995 -0.034601 -86.583376 -0.016972 1.927101 7.070308 0.119869 -0.077486 0.274449 0.000000 0.000000 0.000000 0.000000 0.000000 0.000000 0.000000 9.229260 -5.201964 2.456557 72.236423 -7.443040 5.296898 2.138281 41.997062 0.002949 -0.795721 2.513906 -0.019573 0.080255 -0.117123 -0.000000 0.000000 0.000000 0.000000 0.000000 0.000000 0.000000 
4.758919 16.084105 0.223057 -52.822521 83.674385 -28.055444 1.164863 -1.913867 9.055424 -0.412115 -1.711263 -0.969840 -5.717801 -1.652756 0.293889 7.510057 -8.943593 -7.121276 -2.710981 -0.185610 -0.209061 0.000000 0.000000 0.000000 6.021529 7.191671 0.479198 -63.925103 -11.238581 2.657468 0.039881 -87.993216 -0.016772 1.860863 7.105264 0.116257 -0.076017 0.281513 0.000000 0.000000 0.000000 0.000000 0.000000 0.000000 0.000000 9.197885 -5.609174 2.505270 71.906383 -8.105103 4.925788 2.153255 42.006024 0.003074 -0.771704 2.511817 -0.019072 0.081274 -0.114712 -0.000000 0.000000 0.000000 0.000000 0.000000 0.000000 0.000000 
